<?xml version="1.0" encoding="UTF-8" standalone="no"?>
<!DOCTYPE svg PUBLIC "-//W3C//DTD SVG 1.1//EN" "http://www.w3.org/Graphics/SVG/1.1/DTD/svg11.dtd">
<svg version="1.1" xmlns="http://www.w3.org/2000/svg" xmlns:xlink="http://www.w3.org/1999/xlink" preserveAspectRatio="xMidYMid meet" viewBox="5.593862954442642 14.365591397849474 664.4061370455573 408.57517870079636" width="664.41" height="408.58"><defs><path d="M53.45 286.18C52.79 227.1 110.5 231.64 132.88 239.08C187.89 257.35 270.13 291.24 336.41 269.08C402.69 246.93 431.12 153.14 481.89 107.35C532.67 61.57 541.16 72.62 548.9 70.29C556.64 67.96 547.97 22.03 536.3 21.92C524.64 21.81 509.59 27.31 459.74 69.59C409.89 111.87 392.35 193.11 332.72 215.08C273.08 237.05 186.97 209.67 132.88 201.73C110.16 198.4 2.26 188.12 5.67 286.18C8.5 367.37 96.24 412.95 268.92 422.94C125.9 388.14 54.08 342.55 53.45 286.18Z" id="b3IqpaKiou"></path><path d="M481.5 51.67L451.16 76.67C454.05 76.23 455.5 77.34 455.5 80C455.5 84 443.91 89.92 451.16 92.67C458.41 95.42 477.25 95.25 484.5 91C491.75 86.75 477.33 81.25 480.16 75.67C483 70.09 495 73.55 495.83 68.67C496.39 65.42 492.27 61.25 483.5 56.16L481.5 51.67Z" id="c2wxLJc2e"></path><path d="M414.16 168.95C411.62 166.3 427.91 159.02 426.16 153.09C424.41 147.16 406.54 150.75 407.14 145.22C407.74 139.69 423.32 137.36 428.55 130.97C433.79 124.57 423.34 122.18 428.07 119.64C432.8 117.11 444.45 116.36 447.47 120.82C450.5 125.28 438.56 132.88 440.18 137.48C441.25 140.55 445.84 141.13 453.93 139.23L436.28 163.67C423.22 168.95 415.84 170.71 414.16 168.95Z" id="axU2QXUtJ"></path><path d="M362.76 197.9L341.95 209.97C337.54 217.56 335.61 223.49 336.18 227.76C337.03 234.18 340.72 238.39 345.34 235.62C349.97 232.85 347.01 222.11 354.68 216.69C362.36 211.26 373.12 216.26 376.05 213.91C378.97 211.57 360.66 212.03 366.39 207.3C372.11 202.58 395.17 198.61 398.94 195.02C402.7 191.42 386.33 196.78 381.44 192.93C378.17 190.36 377.48 185.92 379.35 179.6L362.76 197.9Z" id="c1Eni6P4UD"></path><path d="M270.11 276.31L239.46 271.06C254.44 271.06 262.62 269.09 263.99 265.14C266.04 259.21 243.61 253.94 247.68 247.34C251.75 240.74 273.47 237.53 280.27 238.74C287.07 239.95 270.83 251.19 274.88 252.17C278.93 253.15 289.46 236.61 296.47 242.65C301.15 246.67 303.29 257.89 302.92 276.31L270.11 276.31Z" id="e5KChyN1rC"></path><path d="M154.51 205.29C161.09 211.27 163.38 215.54 161.36 218.11C158.35 221.96 165.99 220.99 171.77 227.41C177.55 233.84 159.11 243.39 165.57 246.37C172.04 249.36 192.27 244.79 197.63 239.36C202.99 233.92 185.37 229.44 187.02 224.63C188.66 219.82 202.82 223.2 204.2 220.12C205.13 218.06 201.25 215.46 192.56 212.3L154.51 205.29Z" id="c4EXYd1rs3"></path><path d="M79.36 240.57L96.61 235.57C93.32 234.77 91.4 233.27 90.86 231.07C90.05 227.79 97.05 221.93 93.36 222.43C89.68 222.93 81.61 232.11 76.11 233.07C70.61 234.04 73.74 225.12 71.36 226.3C68.99 227.49 68.05 232.26 66.61 237.82C65.65 241.54 65.32 245.12 65.61 248.57L79.36 240.57Z" id="a5YDscRex"></path><path d="M21.7 317.51C25.45 317.33 28.57 327.89 31.95 327.51C35.32 327.14 40.2 312.7 42.95 311.01C45.7 309.33 40.26 321.14 42.95 320.76C45.63 320.39 52.45 314.08 53.7 309.51C54.95 304.95 48.63 305.89 47.95 302.51C47.26 299.14 51.88 301.14 50.95 296.01C50.01 290.89 49.26 286.01 49.45 282.76C49.63 279.51 48.57 271.58 44.95 269.01C41.32 266.45 36.51 276.08 34.95 272.51C33.38 268.95 42.57 253.51 38.7 254.76C34.82 256.01 29.13 267.33 21.7 272.51C14.26 277.7 9.82 273.2 8.95 275.51C8.07 277.83 9.95 297.08 10.45 301.51C10.95 305.95 16.95 301.58 17.95 304.51C18.95 307.45 13.51 310.01 14.45 313.26C15.38 316.51 17.95 317.7 21.7 317.51Z" id="b1aojuiP08"></path><path d="M101.58 394.33C94.87 385.03 91.62 378.03 91.83 373.33C92.14 366.26 107.2 367.89 102.83 366.08C98.45 364.26 80.27 368.39 74.33 366.08C68.39 363.76 83.33 357.14 79.08 356.83C74.83 356.51 62.45 360.7 57.33 364.83C53.91 367.58 54.33 370.41 58.58 373.33L101.58 394.33Z" id="atEkFR9xI"></path><path d="M207.28 417.42L260.28 421.17L205.82 405.57L166.84 391.42C169.13 393.76 169.96 395.59 169.34 396.92C168.4 398.92 163.09 397.05 163.09 399.42C163.09 401.8 169.03 403.61 169.34 406.42C169.55 408.3 167.88 409.72 164.34 410.67L207.28 417.42Z" id="h2kSYXnkVU"></path><path d="M53.45 286.18C52.79 227.1 110.5 231.64 132.88 239.08C187.89 257.35 270.13 291.24 336.41 269.08C402.69 246.93 431.12 153.14 481.89 107.35C532.67 61.57 541.16 72.62 548.9 70.29C556.64 67.96 547.97 22.03 536.3 21.92C524.64 21.81 509.59 27.31 459.74 69.59C409.89 111.87 392.35 193.11 332.72 215.08C273.08 237.05 186.97 209.67 132.88 201.73C110.16 198.4 2.26 188.12 5.67 286.18C8.5 367.37 96.24 412.95 268.92 422.94C125.9 388.14 54.08 342.55 53.45 286.18Z" id="ba0LqvC9ss"></path><path d="M516.52 33.08C518.19 24.38 524.82 18.45 536.41 15.3C553.8 10.56 621.67 24.98 627.33 33.14C632.99 41.3 631.83 56.66 626.15 60.75C622.36 63.47 595.63 66.77 545.94 70.64" id="f4WTueO46S"></path><path d="M532.93 34.19C531.7 39.7 558.1 40.96 612.13 37.99C560.56 29.96 534.16 28.69 532.93 34.19Z" id="bqApwOZY"></path><path d="M578.33 32.59C578.33 36.79 574.93 40.19 570.73 40.19C566.54 40.19 563.13 36.79 563.13 32.59C563.13 28.4 566.54 24.99 570.73 24.99C574.93 24.99 578.33 28.4 578.33 32.59Z" id="b34AAwBTdl"></path><path d="M571.39 32.59C571.39 30.06 571.17 27.53 570.73 24.99C572.88 27.53 573.95 30.06 573.95 32.59C573.95 35.13 572.88 37.66 570.73 40.19C571.17 37.66 571.39 35.13 571.39 32.59Z" id="g6N11uwEm"></path><path d="M554.97 49.29C565.59 56.9 615.45 52.46 618.21 51.99C620.97 51.52 621.33 47.99 624.42 47.99C627.51 47.99 628.89 51.99 630.57 51.99" id="e1ypyyYQtr"></path><path d="M611.8 50.12L614.19 44.53L620.1 43.48L617.96 49.03L611.8 50.12Z" id="d1ev35pQd9"></path><path d="M604.53 51.17L606.71 47.17L611.19 46.8L609.2 50.79L604.53 51.17Z" id="b1mlc1P81V"></path><path d="M597.86 51.67L600.04 47.67L604.53 47.3L602.53 51.29L597.86 51.67Z" id="aFK8RngMj"></path><path d="M590.89 51.67L593.36 47.84L597.86 47.81L595.58 51.64L590.89 51.67Z" id="buOFVofDx"></path><path d="M584.21 51.67L586.68 47.84L591.18 47.81L588.89 51.64L584.21 51.67Z" id="a9fCtDFlE"></path><path d="M624.34 49.49C623.49 49.48 622.44 50.31 621.19 52C639.02 57.69 649.14 63.4 651.57 69.14C655.21 77.75 654.64 79.57 658.57 84.28C661.19 87.43 664.47 88.81 668.41 88.44C663.65 88.01 660.27 85.5 658.27 80.91C662.85 84.94 666.76 85.44 670 82.43C666.95 84.43 664.14 84.05 661.57 81.28C657.71 77.14 658.93 72.8 654.57 65.85C651.67 61.22 642.08 55.94 625.8 50C625.42 49.67 624.93 49.49 624.34 49.49Z" id="b13SmdFQMD"></path><path d="M549.69 70.64L542.69 70.64" id="a2nh0V6Re7"></path></defs><g><g><g><use xlink:href="#b3IqpaKiou" opacity="1" fill="#faa51d" fill-opacity="1"></use><g><use xlink:href="#b3IqpaKiou" opacity="1" fill-opacity="0" stroke="#000000" stroke-width="4" stroke-opacity="1"></use></g></g><g><use xlink:href="#c2wxLJc2e" opacity="1" fill="#ffffff" fill-opacity="1"></use></g><g><use xlink:href="#axU2QXUtJ" opacity="1" fill="#ffffff" fill-opacity="1"></use></g><g><use xlink:href="#c1Eni6P4UD" opacity="1" fill="#ffffff" fill-opacity="1"></use></g><g><use xlink:href="#e5KChyN1rC" opacity="1" fill="#ffffff" fill-opacity="1"></use></g><g><use xlink:href="#c4EXYd1rs3" opacity="1" fill="#ffffff" fill-opacity="1"></use></g><g><use xlink:href="#a5YDscRex" opacity="1" fill="#ffffff" fill-opacity="1"></use></g><g><use xlink:href="#b1aojuiP08" opacity="1" fill="#ffffff" fill-opacity="1"></use></g><g><use xlink:href="#atEkFR9xI" opacity="1" fill="#ffffff" fill-opacity="1"></use></g><g><use xlink:href="#h2kSYXnkVU" opacity="1" fill="#ffffff" fill-opacity="1"></use></g><g><g><use xlink:href="#ba0LqvC9ss" opacity="1" fill-opacity="0" stroke="#000000" stroke-width="4" stroke-opacity="1"></use></g></g><g><g><use xlink:href="#f4WTueO46S" opacity="1" fill="#faa51d" fill-opacity="1"></use><g><use xlink:href="#f4WTueO46S" opacity="1" fill-opacity="0" stroke="#000000" stroke-width="4" stroke-opacity="1"></use></g></g><g><use xlink:href="#bqApwOZY" opacity="1" fill="#ffffff" fill-opacity="1"></use></g><g><use xlink:href="#b34AAwBTdl" opacity="1" fill="#0e0e0e" fill-opacity="1"></use></g><g><use xlink:href="#g6N11uwEm" opacity="1" fill="#000000" fill-opacity="1"></use></g><g><g><use xlink:href="#e1ypyyYQtr" opacity="1" fill-opacity="0" stroke="#000000" stroke-width="3" stroke-opacity="1"></use></g></g><g><use xlink:href="#d1ev35pQd9" opacity="1" fill="#fa801d" fill-opacity="1"></use></g><g><use xlink:href="#b1mlc1P81V" opacity="1" fill="#fa801d" fill-opacity="1"></use></g><g><use xlink:href="#aFK8RngMj" opacity="1" fill="#fa801d" fill-opacity="1"></use></g><g><use xlink:href="#buOFVofDx" opacity="1" fill="#fa801d" fill-opacity="1"></use></g><g><use xlink:href="#a9fCtDFlE" opacity="1" fill="#fa801d" fill-opacity="1"></use></g><g><use xlink:href="#b13SmdFQMD" opacity="1" fill="#fa421d" fill-opacity="1"></use></g></g><g><g><use xlink:href="#a2nh0V6Re7" opacity="1" fill-opacity="0" stroke="#000000" stroke-width="4" stroke-opacity="1"></use></g></g></g></g></svg>